<?xml version="1.0" encoding="UTF-8"?>
<svg width="96px" height="86px" viewBox="0 0 96 86" version="1.1" xmlns="http://www.w3.org/2000/svg" xmlns:xlink="http://www.w3.org/1999/xlink">
    <title>􀫔</title>
    <g id="Page-1" stroke="none" stroke-width="1" fill="none" fill-rule="evenodd">
        <path d="M57.492599,43.5707899 L92.5828264,27.4798998 C94.7358328,26.4600547 95.79345,24.7603127 95.79345,23.0227988 C95.79345,21.2475128 94.7358328,19.5099988 92.5828264,18.5279257 L57.492599,2.47480772 C53.9880104,0.885097414 51.1746001,0.1593601 48.3912411,0.132313989 L48.0118164,0.132941091 C45.1033691,0.0951690484 42.1571498,0.812837854 38.4932617,2.47480772 L3.40303428,18.5279257 C1.25002787,19.5099988 0.192410679,21.2475128 0.192410679,23.0227988 C0.192410679,24.7603127 1.25002787,26.4600547 3.40303428,27.4798998 L18.7762555,34.4677276 L40.9862165,23.9293278 C40.7218122,23.6271515 40.6084961,23.2872031 40.6084961,23.0227988 C40.6084961,20.8697924 44.2346121,19.1322784 48.1251325,19.1322784 C51.9778808,19.1322784 55.5662249,20.8697924 55.5662249,23.0227988 C55.5662249,25.2135773 51.9778808,26.9510912 48.1251325,26.9510912 C46.8786551,26.9510912 45.7077218,26.800003 44.6501046,26.4600547 L23.3089006,36.582962 L38.4932617,43.5707899 C42.1949218,45.2705318 45.1033691,45.9504285 48.0118164,45.9126565 C50.9202636,45.9504285 53.8287109,45.2705318 57.492599,43.5707899 Z M48.0118164,69.0291464 C68.8997558,69.0291464 82.1577427,59.9260842 82.1577427,49.8031769 L82.1577427,37.3006308 L59.4189732,47.7257145 C55.3018206,49.6143166 51.5623884,50.5586177 48.0118164,50.4830736 C44.4234723,50.5586177 40.7218122,49.6143166 36.6046596,47.7257145 L23.1955845,41.5688716 L23.1955845,63.1744799 C29.1257952,66.7628239 37.5867327,69.0291464 48.0118164,69.0291464 Z M18.9273437,59.8505401 L18.9273437,39.6424975 L13.828118,37.3006308 L13.828118,49.8031769 C13.828118,52.8627123 15.641176,56.6399165 18.9273437,59.8505401 Z M21.5336146,85.1578086 C24.2154297,85.1578086 25.9529436,83.4580666 25.9529436,80.7384796 L25.9529436,71.295469 C25.9529436,69.2180067 24.9330985,67.707125 23.1955845,67.1405443 L23.1955845,63.1744799 C21.5713867,62.1546347 20.1360491,61.0970175 18.9273437,59.8505401 L18.9273437,67.1027723 C17.1898298,67.6693529 16.1322126,69.1802346 16.1322126,71.295469 L16.1322126,80.7384796 C16.1322126,83.4580666 17.8697265,85.1578086 20.5515415,85.1578086 L21.5336146,85.1578086 Z" id="􀫔" fill="#FFFFFF" fill-rule="nonzero"></path>
    </g>
</svg>