<?xml version="1.0" encoding="UTF-8"?>
<svg width="61px" height="77px" viewBox="0 0 61 77" version="1.1" xmlns="http://www.w3.org/2000/svg" xmlns:xlink="http://www.w3.org/1999/xlink">
    <title>􀟿</title>
    <g id="Page-1" stroke="none" stroke-width="1" fill="none" fill-rule="evenodd">
        <path d="M49.6203521,76.6930346 C56.7970402,76.6930346 60.4231563,73.0291464 60.4231563,65.7769143 L60.4231563,11.2718571 C60.4231563,3.98185292 56.8348122,0.317964807 49.6203521,0.317964807 L40.3662018,0.317964807 C39.2330405,0.317964807 38.5153717,1.07340566 38.5153717,2.24433897 L38.5153717,2.69760348 C38.5153717,7.30579265 35.3047481,10.1764679 30.6210148,10.1764679 C25.8995095,10.1764679 22.6888859,7.30579265 22.6888859,2.69760348 L22.6888859,2.24433897 C22.6888859,1.07340566 21.9712171,0.317964807 20.8758279,0.317964807 L11.5839054,0.317964807 C4.40721738,0.317964807 0.781101312,3.98185292 0.781101312,11.2718571 L0.781101312,65.7769143 C0.781101312,73.0291464 4.44498943,76.6930346 11.5839054,76.6930346 L49.6203521,76.6930346 Z M44.3700383,26.4562182 L16.9097634,26.4562182 C15.7010581,26.4562182 14.8323011,25.5496891 14.8323011,24.3787558 C14.8323011,23.2455946 15.7010581,22.3768376 16.9097634,22.3768376 L44.3700383,22.3768376 C45.5031995,22.3768376 46.4097285,23.2455946 46.4097285,24.3787558 C46.4097285,25.5496891 45.5031995,26.4562182 44.3700383,26.4562182 Z M29.9788901,39.2609405 L16.9097634,39.2609405 C15.7010581,39.2609405 14.8323011,38.3921836 14.8323011,37.2590223 C14.8323011,36.088089 15.7010581,35.219332 16.9097634,35.219332 L29.9788901,35.219332 C31.1498234,35.219332 32.0185804,36.088089 32.0185804,37.2590223 C32.0185804,38.3921836 31.1498234,39.2609405 29.9788901,39.2609405 Z" id="􀟿" fill="#FFFFFF" fill-rule="nonzero"></path>
    </g>
</svg>